<svg width="54" height="54" viewBox="0 0 54 54" fill="none" xmlns="http://www.w3.org/2000/svg">
<path d="M22.546 18.258H23.638V11.86H22.546V11.118H25.878V11.86H24.786V14.87L28.034 11.86H27.138V11.118H30.4V11.86H29.364L25.948 15.024L29.42 18.258H30.47V19H27.096V18.258H28.02L24.786 15.262V18.258H25.878V19H22.546V18.258Z" fill="black" fill-opacity="0.5"/>
<path d="M36.56 29.258H37.624V22.86H36.56V22.118H39.234L41.81 27.648L44.26 22.118H46.976V22.86H45.912V29.258H46.976V30H43.798V29.258H44.82V23.056L41.852 29.594H41.488L38.478 23.056V29.258H39.5V30H36.56V29.258Z" fill="black" fill-opacity="0.5"/>
<path d="M7.56 29.258H8.624V22.86H7.56V22.118H10.234L12.81 27.648L15.26 22.118H17.976V22.86H16.912V29.258H17.976V30H14.798V29.258H15.82V23.056L12.852 29.594H12.488L9.478 23.056V29.258H10.5V30H7.56V29.258Z" fill="black" fill-opacity="0.5"/>
<circle cx="27" cy="27" r="26.5" stroke="#2C3F43"/>
<path d="M6.5 10L27 27.25M47.5 44.5L27 27.25M27 27.25L6.5 44.5L47.5 10" stroke="#2C3F43"/>
</svg>
